<svg width="400" height="400" version="1.1" xmlns="http://www.w3.org/2000/svg" desc="Created with imagetracer.js version 1.2.6" ><path fill="rgb(0,0,0)" stroke="rgb(0,0,0)" stroke-width="1" opacity="0" d="M 0 0 L 500 0 L 500 500 L 0 500 L 0 0 Z M 235 102 L 234 103 L 216 105 L 198 111 Q 173 121 156 138 L 132 165 L 116 195 L 112 207 Q 113 211 110 210 L 108 220 L 108 222 L 107 226 L 107 228 L 105 235 L 106 239 L 105 241 L 105 256 L 106 257 L 105 259 L 106 269 L 106 271 L 108 281 L 110 284 L 109 287 Q 120 324 142 350 L 147 353 L 148 356 Q 167 376 195 389 L 224 397 L 245 398 L 246 399 L 276 397 L 306 390 L 336 372 L 348 361 L 351 359 L 366 342 L 377 325 L 385 309 L 392 287 L 393 278 L 393 276 L 395 267 L 395 258 L 396 257 L 394 225 L 389 203 L 386 199 L 383 189 L 374 172 L 360 153 Q 347 135 328 124 Q 325 125 326 123 L 311 113 L 286 105 L 279 105 L 272 103 L 262 103 L 261 102 L 235 102 Z " /><path fill="rgb(0,0,0)" stroke="rgb(0,0,0)" stroke-width="1" opacity="0" d="M 240.5 127 L 254.5 127 L 255.5 128 L 270.5 129 L 284.5 132 L 298.5 137 Q 325.4 148.1 342 169.5 Q 354.6 185.4 363 205.5 L 360 206 L 359 212.5 Q 360.4 215.3 365 214 L 367 221.5 L 368 235.5 L 370 238.5 L 370 264.5 L 357 304.5 L 350 318.5 L 334.5 342 L 317 314.5 L 280 265.5 L 275 256.5 L 330 183.5 L 336 172.5 L 327.5 167 L 289.5 167 L 283 172.5 L 247.5 219 L 217 178.5 L 206.5 167 L 172.5 167 L 167 171.5 L 164 175.5 L 164 179.5 L 186 208.5 L 221 259.5 L 162.5 336 Q 151.5 324 144 308.5 L 144.5 307 Q 141.9 307.8 143 304.5 Q 140.4 293.1 135 284.5 L 131 250.5 L 132 249.5 L 132 235.5 L 133 234.5 L 134 223.5 L 142 198.5 Q 153.6 173.1 173.5 156 Q 187 143.5 205.5 136 L 222.5 130 L 232.5 128 L 239.5 128 L 240.5 127 Z M 311 296 L 308 299 Q 306 304 313 302 Q 315 301 314 298 L 311 296 Z " /><path fill="rgb(0,0,0)" stroke="rgb(0,0,0)" stroke-width="1" opacity="0" d="M 246.5 299 L 284.5 349 L 286.5 350 L 323.5 350 L 325 349.5 L 310.5 361 L 286.5 371 L 260.5 376 L 235.5 376 L 215.5 372 L 210.5 369 L 207.5 369 L 194.5 364 L 174 350.5 L 204.5 350 L 205.5 349 L 206.5 350 L 212 344.5 L 240 307.5 L 243 301 L 246.5 299 Z " /><path fill="rgb(106,189,231)" stroke="rgb(106,189,231)" stroke-width="1" opacity="0.8352941176470589" d="M 234.5 102 L 260.5 102 L 261.5 103 L 271.5 103 L 278.5 105 L 285.5 105 L 310.5 113 L 326 122.5 Q 325.3 124.8 327.5 124 Q 346.5 135.5 360 152.5 Q 373.8 168.2 383 188.5 L 381.5 189 L 376 178 L 374 178.5 L 375 180.5 L 373 183.5 L 381 197.5 Q 380 202 382.5 203 Q 386.8 203.8 387.5 201 L 389 204 Q 386.3 202.9 387 205.5 L 379.5 210 Q 374.8 209.3 373 211.5 L 377 226.5 L 377 238.5 L 375 241.5 L 375 261 L 371 259 L 370.5 267 Q 367.8 265.8 370 264.5 L 370 238.5 L 368 235.5 L 367 221.5 L 365 214 L 367 214 L 367 210 L 368.5 210 L 378 205 L 376 195.5 L 367 176.5 L 359 164.5 L 341.5 145 L 335 140.5 Q 335.8 138.3 333.5 139 Q 313.6 122.4 285.5 114 L 265.5 110 L 233.5 110 L 214.5 114 L 202.5 119 L 199.5 119 Q 177 130 159 145.5 L 149.5 157 Q 147.3 156.3 148 158.5 L 129 185.5 L 117 213.5 L 117 218.5 L 113 231.5 L 113 264.5 L 118 291.5 L 123 302.5 L 124 309.5 Q 126.8 310.6 126 314 L 122 313 L 118.5 304 L 118 306.5 L 125 322.5 L 142 347.5 L 139 345.5 L 124 323.5 L 117 309.5 L 109 286.5 L 110 283.5 L 108 280.5 L 106 270.5 L 106 268.5 L 105 258.5 L 106 256.5 L 105 255.5 L 105 240.5 L 106 238.5 L 105 234.5 L 107 227.5 L 107 225.5 L 108 221.5 L 108 219.5 L 110 210 Q 113.3 211.3 112 206.5 L 116 194.5 L 132 164.5 L 155.5 138 Q 173.4 121.4 197.5 111 L 215.5 105 L 233.5 103 L 234.5 102 Z M 368 215 L 367 218 L 368 218 L 368 215 Z M 369 218 L 368 221 L 369 221 L 369 218 Z M 109 270 L 109 275 L 110 275 L 109 270 Z M 116 296 L 116 301 L 117 301 L 116 296 Z M 118 301 L 117 304 L 118 304 L 118 301 Z " /><path fill="rgb(106,189,231)" stroke="rgb(106,189,231)" stroke-width="1" opacity="0.8352941176470589" d="M 239.5 119 L 262.5 119 L 286.5 124 L 302 129 Q 300.8 132 304.5 131 Q 330.4 142.6 347 163.5 L 365 191.5 L 368 206 L 364.5 207 L 345 173.5 L 324.5 152 L 311.5 143 L 284.5 132 L 264.5 128 L 240.5 127 L 239.5 128 L 232.5 128 L 222.5 130 Q 204.3 135.3 189.5 144 Q 172.8 154.8 160 169.5 Q 147.5 184 140 203.5 L 134 223.5 L 133 234.5 L 132 235.5 L 132 245.5 L 131 246.5 L 132 249.5 Q 129.7 250.8 131 255.5 Q 133.3 256.8 130.5 258 L 130 240.5 L 131 237 Q 128.3 235.9 129 238.5 L 128 239.5 L 128 251.5 L 128 255.5 L 127 264.5 L 129 271.5 L 129 278.5 L 131 280.5 L 135 292 L 139 292 L 139 293.5 L 142 300.5 L 140 301 L 140 309.5 Q 143.7 312.3 144 318.5 L 142 317.5 L 134 303.5 L 129 286.5 L 126 283.5 L 125 257.5 L 123 251.5 Q 125.6 250.1 125 245.5 L 124 244.5 L 124 232.5 L 125 231.5 L 125 223.5 L 121 220.5 L 121 219 L 125 219 L 125 217.5 Q 128.5 214 128 206.5 L 137 190.5 L 137 187.5 L 154.5 158 L 160.5 156 Q 172.2 142.7 188.5 134 L 223.5 121 L 230.5 121 L 239.5 119 Z " /><path fill="rgb(106,189,231)" stroke="rgb(106,189,231)" stroke-width="1" opacity="0.8352941176470589" d="M 172.5 167 L 206.5 167 L 213 173.5 L 247.5 219 L 287.5 168 L 289.5 167 L 327.5 167 L 330 168 L 328.5 171 L 324.5 172 L 304.5 172 L 301 175.5 L 300.5 177 L 297.5 176 L 295 177 L 292.5 181 Q 290.3 181.8 291 179.5 Q 293.3 178.2 290.5 177 L 286 180.5 L 284 185.5 L 272.5 199 L 270.5 198 L 260 210.5 L 249.5 227 L 249 225 Q 246 226.3 247 222.5 L 240 216.5 L 226.5 196 L 223.5 198 L 209.5 183 L 208 183.5 L 210 186.5 L 212 196.5 L 211 196.5 L 207 186 L 205 186 Q 206.1 183.3 203.5 184 L 198.5 182 L 195 183 L 194.5 186 L 191 184 Q 192.1 181.3 189.5 182 L 180 176.5 Q 181.8 170.8 175.5 173 L 173 178 L 176 179.5 L 176 181.5 L 175.5 185 L 171.5 180 Q 168.2 178.9 169 181.5 L 178.5 192 Q 180.3 189.2 182 193.5 L 187 206.5 L 190.5 211 L 194 208.5 L 194 205.5 Q 191 206.5 192 201.5 L 193 201.5 L 194.5 204 Q 197.8 202.9 197 205.5 L 197 207.5 L 197 209 L 194 209 Q 195 212 192 211 L 192 213.5 L 211 237.5 L 217 249 Q 219.7 247.9 219 250.5 L 220 253 L 223 254.5 L 224 259.5 L 219 264.5 L 217 269.5 L 198 293.5 L 191 305 Q 188.3 303.9 189 306.5 Q 184 309.8 183 316 L 181 316.5 L 182 319.5 L 178.5 325 L 178 323 L 175 324.5 L 163.5 340 L 164 338.5 L 163 335.5 L 221 258.5 L 164 179.5 L 164 175.5 L 170.5 168 L 172.5 167 Z M 187 173 L 187 175 L 196 177 L 200 177 L 192 173 L 187 173 Z M 165 177 L 168 181 L 168 179 L 165 177 Z M 206 181 L 207 183 L 208 183 L 206 181 Z M 217 186 Q 215 190 219 191 L 220 191 L 217 186 Z " /><path fill="rgb(106,189,231)" stroke="rgb(106,189,231)" stroke-width="1" opacity="0.8352941176470589" d="M 332.5 170 L 336 172.5 L 334.5 176 L 333 175.5 L 334 172.5 L 332.5 170 Z " /><path fill="rgb(106,189,231)" stroke="rgb(106,189,231)" stroke-width="1" opacity="0.8352941176470589" d="M 331.5 177 Q 333.8 176.3 333 178.5 L 275 257.5 L 288 275.5 L 281 269.5 L 278.5 265 L 276 263.5 L 272.5 258 L 269.5 257 L 269.5 259 Q 266.3 257.3 270 255.5 L 275 245.5 L 284.5 235 L 287 233.5 L 288 231.5 L 287.5 230 Q 288.8 232.3 290 229.5 L 295 220 L 297 220 Q 295.9 217.3 298.5 218 L 323.5 186 L 325 186.5 L 327 183.5 L 331.5 177 Z M 283 239 L 281 242 L 283 241 L 283 239 Z M 281 242 L 278 246 L 281 244 L 281 242 Z " /><path fill="rgb(106,189,231)" stroke="rgb(106,189,231)" stroke-width="1" opacity="0.8352941176470589" d="M 212.5 198 L 216.5 203 L 212 199.5 L 212.5 198 Z " /><path fill="rgb(106,189,231)" stroke="rgb(106,189,231)" stroke-width="1" opacity="0.8352941176470589" d="M 208.5 208 L 210.5 211 L 208.5 208 Z " /><path fill="rgb(106,189,231)" stroke="rgb(106,189,231)" stroke-width="1" opacity="0.8352941176470589" d="M 241.5 227 L 246 234.5 L 245 234.5 L 241.5 227 Z " /><path fill="rgb(106,189,231)" stroke="rgb(106,189,231)" stroke-width="1" opacity="0.8352941176470589" d="M 223.5 248 L 224.5 250 L 223.5 248 Z " /><path fill="rgb(106,189,231)" stroke="rgb(106,189,231)" stroke-width="1" opacity="0.8352941176470589" d="M 240.5 248 L 255 248.5 L 253.5 250 L 242 250 L 245.5 259 L 254 259.5 L 249 261.5 L 255 268.5 L 246.5 261 Q 243.8 260.4 245 266.5 L 244 266.5 L 244 261 L 233.5 261 L 233 259 L 242.5 259 L 243 256.5 L 238.5 250 L 228 249.5 L 239.5 249 L 240.5 248 Z " /><path fill="rgb(106,189,231)" stroke="rgb(106,189,231)" stroke-width="1" opacity="0.8352941176470589" d="M 230.5 257 L 233 264.5 L 229 280.5 Q 225.8 288.3 219.5 293 L 223 288.5 L 230 271.5 L 231 259.5 L 230.5 257 Z " /><path fill="rgb(106,189,231)" stroke="rgb(106,189,231)" stroke-width="1" opacity="0.8352941176470589" d="M 288.5 277 Q 290.8 276.3 290 278.5 L 317 314.5 L 332 337.5 L 333 341.5 L 331 340.5 L 330 336.5 L 323 327.5 L 323 325.5 L 313 314.5 L 307 303.5 Q 295.1 291.3 288.5 277 Z " /><path fill="rgb(106,189,231)" stroke="rgb(106,189,231)" stroke-width="1" opacity="0.8352941176470589" d="M 372.5 280 L 373 284.5 L 367 303.5 L 360 318.5 L 356 322.5 L 348.5 337 L 345.5 339 L 343 334.5 L 354 318.5 L 362 302.5 L 368 283 L 372.5 280 Z " /><path fill="rgb(106,189,231)" stroke="rgb(106,189,231)" stroke-width="1" opacity="0.8352941176470589" d="M 253.5 283 L 254 285.5 L 253 285.5 L 253.5 283 Z " /><path fill="rgb(106,189,231)" stroke="rgb(106,189,231)" stroke-width="1" opacity="0.8352941176470589" d="M 384.5 290 L 385 295.5 L 385 297.5 L 382.5 302 L 380 303.5 L 375 313.5 L 375 316.5 L 371 321.5 L 371 325.5 L 366 336 L 363 337.5 L 363 339.5 L 358.5 345 L 352.5 349 L 349 349 Q 347.8 342.6 352.5 341 L 361 333.5 L 364 326.5 L 375 310.5 L 378 302 Q 381.7 303.4 380 297.5 L 381.5 294 Q 382.7 296.3 384 293.5 L 384.5 290 Z " /><path fill="rgb(106,189,231)" stroke="rgb(106,189,231)" stroke-width="1" opacity="0.8352941176470589" d="M 245.5 295 L 248 296.5 L 259.5 312 Q 261.8 311.3 261 313.5 L 273.5 330 Q 275.8 329.3 275 331.5 L 277 336.5 L 287.5 349 L 291 349.5 L 287.5 350 L 283 347.5 L 246.5 299 L 243 301 L 234 316 Q 231.3 314.9 232 317.5 L 231 317.5 L 231 315.5 L 241 300 L 243 299.5 L 242 298.5 L 245.5 295 Z " /><path fill="rgb(106,189,231)" stroke="rgb(106,189,231)" stroke-width="1" opacity="0.8352941176470589" d="M 310.5 296 L 314 297.5 L 313.5 300 L 311.5 300 Q 309.3 300.8 310 298.5 L 308 298.5 L 310.5 296 Z " /><path fill="rgb(106,189,231)" stroke="rgb(106,189,231)" stroke-width="1" opacity="0.8352941176470589" d="M 360.5 296 L 361 297.5 Q 358.9 306.4 353.5 312 L 354 310.5 L 360.5 296 Z " /><path fill="rgb(106,189,231)" stroke="rgb(106,189,231)" stroke-width="1" opacity="0.8352941176470589" d="M 386 297 Q 389 295.8 388 299.5 L 385 308.5 L 373 331.5 L 350.5 359 L 347.5 361 Q 335.7 374.2 318.5 382 L 319.5 380 L 331 372.5 L 335 362.5 L 337.5 360 L 338 363.5 L 336 365.5 L 337 366.5 L 335.5 369 L 354 353.5 L 373 329.5 L 384 306.5 L 386 297 Z " /><path fill="rgb(106,189,231)" stroke="rgb(106,189,231)" stroke-width="1" opacity="0.8352941176470589" d="M 128 315 Q 131.8 314 133 316.5 L 131.5 320 L 128 319 L 132 327.5 L 128 324.5 L 126 318.5 L 128 318.5 L 128 315 Z " /><path fill="rgb(106,189,231)" stroke="rgb(106,189,231)" stroke-width="1" opacity="0.8352941176470589" d="M 215.5 317 L 216 320 Q 213 318.8 214 322.5 Q 212.8 328.3 208.5 331 L 199.5 336 L 196.5 334 L 195 334.5 Q 196.3 331 201 332 L 202.5 329 Q 208.9 329.4 211 325.5 Q 211.6 319.6 215.5 317 Z " /><path fill="rgb(106,189,231)" stroke="rgb(106,189,231)" stroke-width="1" opacity="0.8352941176470589" d="M 229.5 319 L 231 319.5 L 227.5 324 Q 224.8 322.8 227 321.5 Q 226.3 319.3 228.5 320 L 229.5 319 Z " /><path fill="rgb(106,189,231)" stroke="rgb(106,189,231)" stroke-width="1" opacity="0.8352941176470589" d="M 144.5 320 Q 149.8 324.2 152 331.5 L 149 329.5 L 144.5 320 Z " /><path fill="rgb(106,189,231)" stroke="rgb(106,189,231)" stroke-width="1" opacity="0.8352941176470589" d="M 345.5 325 L 344.5 327 L 345.5 325 Z " /><path fill="rgb(106,189,231)" stroke="rgb(106,189,231)" stroke-width="1" opacity="0.8352941176470589" d="M 224 326 L 226 326.5 L 222.5 331 L 222 329.5 L 224 326 Z " /><path fill="rgb(106,189,231)" stroke="rgb(106,189,231)" stroke-width="1" opacity="0.8352941176470589" d="M 220.5 331 L 221 332.5 L 219 336 Q 216.3 334.9 217 337.5 L 212 345 L 209.5 346 L 214 340.5 L 218 333 Q 220.8 334 220.5 331 Z " /><path fill="rgb(106,189,231)" stroke="rgb(106,189,231)" stroke-width="1" opacity="0.8352941176470589" d="M 182.5 333 L 183.5 335 Q 181.3 334.3 182 336.5 L 178.5 345 L 178 343.5 L 182.5 333 Z " /><path fill="rgb(106,189,231)" stroke="rgb(106,189,231)" stroke-width="1" opacity="0.8352941176470589" d="M 147 340 Q 155.4 339 160 341 L 161 343.5 L 160 347 L 151.5 350 L 148 347.5 L 144 341 L 146.5 342 L 147 340 Z " /><path fill="rgb(106,189,231)" stroke="rgb(106,189,231)" stroke-width="1" opacity="0.8352941176470589" d="M 142.5 349 L 145 350.5 L 146 352.5 L 142.5 349 Z " /><path fill="rgb(106,189,231)" stroke="rgb(106,189,231)" stroke-width="1" opacity="0.8352941176470589" d="M 148.5 355 L 161 366.5 L 159.5 366 L 148.5 355 Z " /><path fill="rgb(106,189,231)" stroke="rgb(106,189,231)" stroke-width="1" opacity="0.8352941176470589" d="M 162.5 368 L 177 378.5 L 174.5 377 Q 166.5 373.5 162.5 368 Z " /><path fill="rgb(106,189,231)" stroke="rgb(106,189,231)" stroke-width="1" opacity="0.8352941176470589" d="M 178.5 379 L 179.5 381 L 178.5 379 Z " /><path fill="rgb(106,189,231)" stroke="rgb(106,189,231)" stroke-width="1" opacity="0.8352941176470589" d="M 316.5 382 L 314.5 385 L 312.5 386 L 314.5 383 L 316.5 382 Z " /><path fill="rgb(23,64,117)" stroke="rgb(23,64,117)" stroke-width="1" opacity="0.996078431372549" d="M 234.5 110 L 239 110.5 L 234.5 111 L 234.5 110 Z " /><path fill="rgb(23,64,117)" stroke="rgb(23,64,117)" stroke-width="1" opacity="0.996078431372549" d="M 261.5 110 L 266 110.5 L 261.5 111 L 261.5 110 Z " /><path fill="rgb(23,64,117)" stroke="rgb(23,64,117)" stroke-width="1" opacity="0.996078431372549" d="M 269.5 111 L 272 111.5 L 269.5 112 L 269.5 111 Z " /><path fill="rgb(23,64,117)" stroke="rgb(23,64,117)" stroke-width="1" opacity="0.996078431372549" d="M 218.5 113 L 221 113.5 L 218.5 114 L 218.5 113 Z " /><path fill="rgb(23,64,117)" stroke="rgb(23,64,117)" stroke-width="1" opacity="0.996078431372549" d="M 279.5 113 L 282 113.5 L 279.5 114 L 279.5 113 Z " /><path fill="rgb(23,64,117)" stroke="rgb(23,64,117)" stroke-width="1" opacity="0.996078431372549" d="M 283.5 114 L 286 114.5 L 283.5 115 L 283.5 114 Z " /><path fill="rgb(23,64,117)" stroke="rgb(23,64,117)" stroke-width="1" opacity="0.996078431372549" d="M 241.5 115 L 243.5 116 L 245.5 116 L 251.5 115 L 255.5 116 L 257.5 115 L 267.5 118 L 269.5 118 L 284.5 121 L 297.5 125 L 302.5 128 L 308.5 129 Q 310.3 132.2 315.5 132 L 326 139.5 Q 325.3 141.8 327.5 141 L 338 149.5 Q 337.3 151.8 339.5 151 L 348.5 161 Q 350.8 160.3 350 162.5 L 360 175.5 L 365 185.5 L 365 188.5 L 369 194.5 L 369 199.5 Q 371.8 201.5 371 206 L 374 204.5 L 374.5 203 L 375 205.5 Q 373.7 209 369 208 L 368 204.5 L 369 202.5 L 367 200.5 L 365 191.5 L 351 168.5 L 329.5 146 L 315.5 136 L 302 131 Q 303.3 128 299.5 129 L 278.5 122 L 273.5 122 L 255.5 118 L 245.5 118 L 238.5 120 L 223.5 121 L 188.5 134 Q 172.2 142.7 160.5 156 L 154.5 158 L 152 160.5 L 149 168.5 L 142 177.5 L 137 187.5 L 137 190.5 L 128 206.5 Q 127.9 214.7 125 219 L 121 219 L 121 220.5 L 125 223.5 L 124 240.5 L 121 252.5 L 125 264.5 Q 123.2 279.2 127 287 Q 130.3 285.7 129 290.5 L 135 307.5 L 143.5 319 L 144 316.5 L 143 312.5 L 140 309.5 L 140 303 L 143 304.5 L 147 314.5 L 161 333.5 L 163 338.5 L 161.5 342 L 159 335.5 L 152.5 328 Q 150.3 328.8 151 326.5 L 144.5 319 L 144 320.5 L 148 328.5 L 157 340 L 146 339.5 L 148 339 L 145 326.5 L 138 318.5 L 136 311 L 133 311.5 Q 135.8 313.3 134 319.5 L 133 319.5 L 133 315.5 Q 130.3 314.8 131 310.5 L 133 305.5 L 128 294.5 L 125 291.5 Q 125 284.5 122 280.5 L 119 248.5 L 120 247.5 L 121 225.5 L 120 223 L 116 223 L 116 224.5 L 114.5 230 L 114 225.5 L 118.5 211 L 119 212.5 L 118 218 Q 120.7 219.1 120 216.5 L 126 206.5 L 126 203.5 L 137 180.5 L 143 172.5 L 147 161.5 L 144 162.5 L 152.5 154 L 157.5 153 L 166 148 L 171.5 141 L 178.5 136 L 203.5 125 L 207.5 125 L 212.5 122 L 224.5 119 L 226.5 119 L 235.5 118 L 241.5 115 Z " /><path fill="rgb(23,64,117)" stroke="rgb(23,64,117)" stroke-width="1" opacity="0.996078431372549" d="M 199.5 119 L 202 119.5 L 199.5 120 L 199.5 119 Z " /><path fill="rgb(23,64,117)" stroke="rgb(23,64,117)" stroke-width="1" opacity="0.996078431372549" d="M 301.5 120 L 305 121.5 L 303.5 122 L 301.5 120 Z " /><path fill="rgb(23,64,117)" stroke="rgb(23,64,117)" stroke-width="1" opacity="0.996078431372549" d="M 322.5 131 L 323.5 133 L 322.5 131 Z " /><path fill="rgb(23,64,117)" stroke="rgb(23,64,117)" stroke-width="1" opacity="0.996078431372549" d="M 175.5 133 L 174.5 135 L 175.5 133 Z " /><path fill="rgb(23,64,117)" stroke="rgb(23,64,117)" stroke-width="1" opacity="0.996078431372549" d="M 171.5 136 L 170.5 138 L 171.5 136 Z " /><path fill="rgb(23,64,117)" stroke="rgb(23,64,117)" stroke-width="1" opacity="0.996078431372549" d="M 167.5 139 L 165.5 142 L 167.5 139 Z " /><path fill="rgb(23,64,117)" stroke="rgb(23,64,117)" stroke-width="1" opacity="0.996078431372549" d="M 338.5 143 L 341.5 147 L 338.5 143 Z " /><path fill="rgb(23,64,117)" stroke="rgb(23,64,117)" stroke-width="1" opacity="0.996078431372549" d="M 156.5 149 L 153.5 153 L 156.5 149 Z " /><path fill="rgb(23,64,117)" stroke="rgb(23,64,117)" stroke-width="1" opacity="0.996078431372549" d="M 346.5 151 L 349.5 155 L 346.5 151 Z " /><path fill="rgb(23,64,117)" stroke="rgb(23,64,117)" stroke-width="1" opacity="0.996078431372549" d="M 353.5 159 L 354.5 161 L 353.5 159 Z " /><path fill="rgb(23,64,117)" stroke="rgb(23,64,117)" stroke-width="1" opacity="0.996078431372549" d="M 141.5 167 L 140.5 169 L 141.5 167 Z " /><path fill="rgb(23,64,117)" stroke="rgb(23,64,117)" stroke-width="1" opacity="0.996078431372549" d="M 330.5 169 Q 332.8 168.3 332 170.5 L 334 174.5 L 333.5 177 L 331.5 177 L 325 183.5 L 298.5 218 L 297 218 L 297 220 Q 294.3 218.9 295 221.5 L 285.5 235 L 279 240.5 L 269 256.5 L 292 287.5 L 291 287.5 L 289.5 285 L 288 285.5 L 290.5 292 L 292 291.5 L 296 299.5 L 296 302.5 Q 294.8 305.8 291 305 Q 292.1 302.3 289.5 303 L 283 288.5 L 283 286.5 L 280.5 282 L 279 282.5 Q 279.8 280.3 277.5 281 L 271.5 273 L 267 274 L 267 269.5 L 263 262.5 L 263 256.5 L 264.5 257 L 271 250.5 L 281 235.5 L 289 226.5 L 283.5 226 L 264.5 230 L 256.5 226 L 252 229.5 L 257.5 223 L 257 224.5 Q 256.1 227.5 260.5 226 L 268 220.5 Q 268.8 218.3 266.5 219 L 262.5 220 L 261.5 219 L 258 221.5 L 288.5 178 L 290.5 177 Q 293.3 178.2 291 179.5 Q 290.3 181.8 292.5 181 L 295 177 L 299.5 176 L 301 176.5 L 304.5 172 L 324.5 172 L 330.5 169 Z M 312 179 L 304 186 L 301 190 L 302 191 L 305 189 L 303 195 Q 301 199 300 196 L 299 199 L 296 201 Q 294 205 298 204 L 304 196 Q 303 193 307 194 L 313 184 Q 315 178 312 179 Z M 284 215 L 282 216 L 280 219 L 285 216 L 284 215 Z M 272 268 Q 272 272 270 271 L 271 273 L 273 272 L 274 275 L 277 275 L 272 268 Z " /><path fill="rgb(23,64,117)" stroke="rgb(23,64,117)" stroke-width="1" opacity="0.996078431372549" d="M 139.5 170 L 138.5 172 L 139.5 170 Z " /><path fill="rgb(23,64,117)" stroke="rgb(23,64,117)" stroke-width="1" opacity="0.996078431372549" d="M 137.5 173 L 136.5 175 L 137.5 173 Z " /><path fill="rgb(23,64,117)" stroke="rgb(23,64,117)" stroke-width="1" opacity="0.996078431372549" d="M 175.5 173 Q 181.8 170.8 180 176.5 L 182.5 179 L 191 182 Q 189.9 184.7 192.5 184 L 195 185.5 Q 193.8 181.8 197.5 183 L 199.5 182 L 205 184 Q 204 187 207 186 L 207 188.5 L 209 190.5 L 212 199.5 L 214.5 202 L 220 205.5 L 225.5 212 L 228 213.5 Q 227.3 215.8 229.5 215 L 234 219.5 Q 233 224 235.5 225 Q 240.5 224.5 241 228.5 L 242 233 Q 244.7 231.9 244 234.5 L 248 236.5 L 247 239.5 L 248 244.5 L 247.5 246 L 254.5 247 L 256 248.5 L 259 260.5 Q 258.5 263.5 254.5 263 L 251.5 262 L 260 271.5 L 261 280 L 258 278.5 L 260 274.5 L 255 269.5 L 256 268.5 L 249.5 261 L 254 259.5 L 245.5 259 L 244 257.5 L 242 250 L 253.5 250 L 255 248.5 L 231.5 248 L 228 249.5 Q 236.9 248.6 241 252.5 L 243 259 L 233.5 259 L 232.5 260 L 228.5 254 L 228 255.5 L 231 259.5 L 231 263.5 L 229 274.5 L 225 285.5 L 227 284.5 L 232 271.5 L 233 261 L 244 261 L 244 266.5 L 245 266.5 Q 243.8 260.4 246.5 261 L 248.5 264 L 246 262.5 L 246 273.5 L 243.5 274 L 241 277.5 L 241 292.5 L 243.5 291 L 245 290.5 L 244.5 289 L 246 291.5 L 241 294.5 L 234.5 303 Q 232.3 302.3 233 304.5 L 226 314.5 L 227 316.5 L 222 322.5 Q 223.3 328.8 219.5 330 L 217 329 L 216 332.5 L 210 339.5 L 211 341.5 L 209 342.5 L 210 340.5 L 207 338.5 L 207.5 337 Q 204.9 336.2 206 339.5 L 197 346.5 L 198.5 348 L 205 348.5 L 202.5 350 L 178.5 350 Q 177.8 347.3 173.5 348 L 172.5 349 L 162.5 349 L 161 348.5 Q 161.8 350.8 159.5 350 L 155 349 L 156.5 353 L 162 356.5 Q 162.7 359.1 160 358 L 160 361 L 162 361 Q 160.9 363.7 163.5 363 L 169 368.5 L 169 371 L 164.5 368 L 161 368 L 159.5 365 L 145 351.5 L 143.5 349 Q 141.3 349.8 142 347.5 L 125 322.5 L 114 294.5 L 115 294.5 L 123 315.5 L 132 331 Q 135.7 329.5 135 332.5 L 144 344 L 148 346.5 L 149.5 349 L 153.5 350 L 161 345.5 Q 159.7 341.3 164.5 343 L 170 341 Q 169.2 336.7 173 335.5 Q 171.8 330.3 174.5 329 Q 176.8 328.3 176 330.5 L 177.5 335 L 179 334.5 Q 180.6 342.6 177 345.5 L 178.5 346 L 183.5 335 L 185 334.5 L 184.5 333 L 193 330.5 L 193 328.5 L 195 322.5 L 193.5 322 L 187 327.5 L 191 322 L 194 320.5 Q 196.9 316.9 196 309.5 L 195 306.5 L 196 304 L 199 304.5 L 198.5 306 L 202 308.5 L 201.5 310 L 206 307.5 L 207 305.5 L 197 303 Q 196.9 298.1 200.5 296 L 199 298.5 Q 197.3 303.3 201.5 302 L 206 303 Q 204.8 300 208.5 301 L 218 296.5 Q 218.8 294.3 216.5 295 L 214.5 294 L 211.5 296 L 209.5 292 L 205.5 292 L 201.5 295 L 210 285.5 L 213 278 Q 215.7 279.1 215 276.5 L 219.5 271 L 220.5 274 Q 223.3 272.8 221 271.5 L 221 268.5 L 223 266.5 L 226 256.5 L 219 250.5 L 212 240.5 L 215 241.5 L 212.5 238 L 211 238.5 L 211.5 237 L 206 232.5 L 204 229.5 L 205 227.5 L 202 226.5 L 193 214.5 L 200 219.5 L 200.5 218 L 202 218.5 L 196.5 210 L 192.5 213 L 195.5 209 Q 197.8 209.8 197 207.5 L 197 205.5 Q 197.8 202.9 194.5 204 L 192.5 199 L 192 205 L 184 198.5 L 179.5 191 L 178.5 192 L 170 183.5 L 169 180 Q 172.8 179.3 174 182.5 L 175.5 185 L 176 181.5 L 174.5 178 Q 172.3 178.8 173 176.5 L 175.5 173 Z M 205 207 L 206 209 L 218 217 L 219 217 L 209 208 L 205 207 Z M 203 219 L 202 221 L 206 227 L 207 227 Q 207 221 203 219 Z M 209 228 L 208 230 Q 212 230 211 235 L 213 236 Q 213 230 209 228 Z M 238 242 L 238 244 L 240 245 Q 241 241 238 242 Z M 224 248 L 223 250 L 227 253 L 224 248 Z M 228 256 L 226 260 L 228 263 L 229 260 L 228 256 Z M 226 263 L 227 265 Q 228 262 226 263 Z M 225 264 L 224 266 L 226 267 L 225 264 Z M 216 278 L 214 280 L 216 280 L 216 278 Z M 225 286 L 223 289 L 225 288 L 225 286 Z M 218 298 L 216 300 L 218 300 L 218 298 Z M 215 300 L 213 301 L 211 305 L 216 301 L 215 300 Z M 225 316 L 223 319 L 225 318 L 225 316 Z M 216 317 Q 212 320 211 326 Q 209 329 203 329 L 201 332 Q 196 331 194 335 L 197 336 L 196 338 L 209 331 Q 213 328 214 323 Q 213 319 216 320 L 216 317 Z " /><path fill="rgb(23,64,117)" stroke="rgb(23,64,117)" stroke-width="1" opacity="0.996078431372549" d="M 135.5 176 L 134 178.5 L 133.5 180 L 133 178.5 L 135.5 176 Z " /><path fill="rgb(23,64,117)" stroke="rgb(23,64,117)" stroke-width="1" opacity="0.996078431372549" d="M 165 177 L 168 178.5 L 167.5 181 L 165 177 Z " /><path fill="rgb(23,64,117)" stroke="rgb(23,64,117)" stroke-width="1" opacity="0.996078431372549" d="M 132.5 181 L 131.5 183 L 132.5 181 Z " /><path fill="rgb(23,64,117)" stroke="rgb(23,64,117)" stroke-width="1" opacity="0.996078431372549" d="M 216.5 186 L 220 190.5 L 218.5 191 Q 214.8 189.8 216.5 186 Z " /><path fill="rgb(23,64,117)" stroke="rgb(23,64,117)" stroke-width="1" opacity="0.996078431372549" d="M 213.5 190 L 218 193.5 L 223 200.5 L 219.5 201 Q 213.5 197.5 213.5 190 Z " /><path fill="rgb(23,64,117)" stroke="rgb(23,64,117)" stroke-width="1" opacity="0.996078431372549" d="M 373.5 192 L 374.5 194 L 373.5 192 Z " /><path fill="rgb(23,64,117)" stroke="rgb(23,64,117)" stroke-width="1" opacity="0.996078431372549" d="M 375.5 197 L 376 200.5 L 375 200.5 L 375.5 197 Z " /><path fill="rgb(23,64,117)" stroke="rgb(23,64,117)" stroke-width="1" opacity="0.996078431372549" d="M 122.5 200 L 123 201.5 L 121 202.5 L 122.5 200 Z " /><path fill="rgb(23,64,117)" stroke="rgb(23,64,117)" stroke-width="1" opacity="0.996078431372549" d="M 187.5 205 Q 190.1 204.2 189 207.5 L 191 207.5 L 192 210.5 L 190.5 211 L 187.5 205 Z " /><path fill="rgb(23,64,117)" stroke="rgb(23,64,117)" stroke-width="1" opacity="0.996078431372549" d="M 373.5 211 L 382.5 211 L 383 213 L 378 215.5 L 379 246 L 381 246.5 L 380.5 248 Q 385.3 247.3 386 250.5 L 385 255 L 379 258.5 L 377 266.5 L 376 288.5 L 365 310.5 L 365 314.5 L 359 323.5 L 356 333.5 L 348 341.5 L 349.5 342 L 353 339.5 L 361 326 L 363 326 L 363 324 L 365 324 Q 363.9 321.3 366.5 322 L 369 320.5 Q 363.4 325.4 361 333.5 L 353.5 341 L 349 344.5 Q 346.8 350.8 352.5 349 L 361 342.5 L 364.5 336 Q 366.8 336.8 366 334.5 L 371 325.5 L 371 321.5 L 375 316.5 L 375 313.5 L 381.5 302 L 384 300.5 L 385.5 298 L 386 299.5 L 384 306.5 L 373 329.5 L 363 343.5 L 348.5 359 L 342.5 364 Q 336.5 363 335.5 367 L 338 363.5 L 337 359.5 L 344 353.5 L 345 349.5 L 342.5 343 L 340 343 L 340 337.5 L 339 335.5 Q 347.8 325.2 353 312 Q 356.3 310.7 355 315.5 L 343 334.5 L 345.5 339 L 350 335.5 L 353 327.5 L 360 318.5 L 374 288.5 L 374 276.5 L 376 269.5 L 376 260.5 L 378.5 255 Q 383.3 254.8 385 251.5 L 383.5 249 L 378 248 L 377 226.5 L 374 218.5 Q 374.5 212.5 373.5 211 Z " /><path fill="rgb(23,64,117)" stroke="rgb(23,64,117)" stroke-width="1" opacity="0.996078431372549" d="M 386.5 226 L 387 228.5 L 386 228.5 L 386.5 226 Z " /><path fill="rgb(23,64,117)" stroke="rgb(23,64,117)" stroke-width="1" opacity="0.996078431372549" d="M 113.5 231 L 114 264.5 L 113 264.5 L 113.5 231 Z " /><path fill="rgb(23,64,117)" stroke="rgb(23,64,117)" stroke-width="1" opacity="0.996078431372549" d="M 250.5 232 L 248.5 235 L 250.5 232 Z " /><path fill="rgb(23,64,117)" stroke="rgb(23,64,117)" stroke-width="1" opacity="0.996078431372549" d="M 278.5 234 L 279 235.5 L 277 236.5 L 278.5 234 Z " /><path fill="rgb(23,64,117)" stroke="rgb(23,64,117)" stroke-width="1" opacity="0.996078431372549" d="M 257 237 Q 259.7 235.9 259 238.5 L 262 243.5 L 264 251.5 L 262.5 252 Q 256 247.8 257 237 Z " /><path fill="rgb(23,64,117)" stroke="rgb(23,64,117)" stroke-width="1" opacity="0.996078431372549" d="M 387.5 238 L 388 240.5 L 387 240.5 L 387.5 238 Z " /><path fill="rgb(23,64,117)" stroke="rgb(23,64,117)" stroke-width="1" opacity="0.996078431372549" d="M 282.5 239 L 283 240.5 L 275.5 249 L 278 245.5 L 282.5 239 Z " /><path fill="rgb(23,64,117)" stroke="rgb(23,64,117)" stroke-width="1" opacity="0.996078431372549" d="M 387.5 252 L 388 262.5 L 387 262.5 L 387.5 252 Z " /><path fill="rgb(23,64,117)" stroke="rgb(23,64,117)" stroke-width="1" opacity="0.996078431372549" d="M 250.5 265 L 253.5 269 L 250.5 265 Z " /><path fill="rgb(23,64,117)" stroke="rgb(23,64,117)" stroke-width="1" opacity="0.996078431372549" d="M 386.5 266 L 387 269.5 L 386 269.5 L 386.5 266 Z " /><path fill="rgb(23,64,117)" stroke="rgb(23,64,117)" stroke-width="1" opacity="0.996078431372549" d="M 114.5 267 L 117 283.5 L 116 283.5 L 114 273.5 L 114.5 267 Z " /><path fill="rgb(23,64,117)" stroke="rgb(23,64,117)" stroke-width="1" opacity="0.996078431372549" d="M 369.5 269 L 370 272.5 L 369 277 L 367 276.5 L 369.5 269 Z " /><path fill="rgb(23,64,117)" stroke="rgb(23,64,117)" stroke-width="1" opacity="0.996078431372549" d="M 108.5 270 L 110 274.5 L 109 274.5 L 108.5 270 Z " /><path fill="rgb(23,64,117)" stroke="rgb(23,64,117)" stroke-width="1" opacity="0.996078431372549" d="M 385.5 274 L 386 276.5 L 385 276.5 L 385.5 274 Z " /><path fill="rgb(23,64,117)" stroke="rgb(23,64,117)" stroke-width="1" opacity="0.996078431372549" d="M 253.5 276 Q 256 277 255 281.5 L 258 286 Q 255.3 284.9 256 287.5 L 258 297.5 L 257 297.5 L 254 286.5 L 254 284.5 L 253.5 276 Z " /><path fill="rgb(23,64,117)" stroke="rgb(23,64,117)" stroke-width="1" opacity="0.996078431372549" d="M 384.5 279 L 385 281.5 L 384 281.5 L 384.5 279 Z " /><path fill="rgb(23,64,117)" stroke="rgb(23,64,117)" stroke-width="1" opacity="0.996078431372549" d="M 249 284 L 253 285 L 254 290.5 L 253 294 Q 256.3 292.7 255 297.5 L 256 300.5 L 252 298.5 L 253 300.5 L 249 297.5 L 251 290.5 L 249 284 Z " /><path fill="rgb(23,64,117)" stroke="rgb(23,64,117)" stroke-width="1" opacity="0.996078431372549" d="M 117.5 285 L 118 287.5 L 117 287.5 L 117.5 285 Z " /><path fill="rgb(23,64,117)" stroke="rgb(23,64,117)" stroke-width="1" opacity="0.996078431372549" d="M 112.5 288 L 114 290.5 L 112 289.5 L 112.5 288 Z " /><path fill="rgb(23,64,117)" stroke="rgb(23,64,117)" stroke-width="1" opacity="0.996078431372549" d="M 118.5 289 L 119 291.5 L 118 291.5 L 118.5 289 Z " /><path fill="rgb(23,64,117)" stroke="rgb(23,64,117)" stroke-width="1" opacity="0.996078431372549" d="M 293.5 291 L 294.5 293 L 293.5 291 Z " /><path fill="rgb(23,64,117)" stroke="rgb(23,64,117)" stroke-width="1" opacity="0.996078431372549" d="M 267.5 293 L 275 298 L 276.5 301 Q 279.1 300.2 278 303.5 L 277 307.5 L 278 307.5 L 278.5 306 L 280.5 309 Q 284.3 308.3 285 310.5 L 283 311 Q 284 314 281 313 Q 282.1 310.3 279.5 311 Q 278.3 308.8 277 311.5 L 278 313.5 L 277.5 315 L 281.5 316 L 285 315 L 287 322 L 282 321 Q 280.5 326.4 283.5 328 L 288.5 327 L 288.5 328 L 286 328.5 L 295.5 330 L 295.5 328 L 303.5 329 L 305 330.5 L 306 334 Q 309 336.7 315 336 L 320 342.5 L 320 346 L 317.5 347 L 308.5 343 L 305.5 344 Q 303.7 341.2 297.5 343 L 291.5 340 L 291 341.5 L 293 345 L 289.5 346 L 284 341.5 Q 284.8 337.3 282 336.5 L 283.5 336 L 287.5 341 Q 291.3 342.3 290 338.5 L 289 338.5 L 288.5 340 L 286.5 336 L 280.5 334 L 278 331.5 L 277 328 Q 274.3 329.1 275 326.5 Q 269.8 323.7 270.5 315 L 269.5 319 L 264 308.5 L 264 305 L 261.5 304 L 260.5 308 L 258 300.5 L 259 298 L 263 297.5 L 261 297 Q 259.5 293.3 262.5 294 L 265.5 295 L 267.5 293 Z M 264 298 L 264 299 Q 266 298 265 301 L 266 301 Q 267 297 264 298 Z M 271 308 L 272 310 Q 273 307 271 308 Z M 272 310 L 273 312 L 275 311 L 272 310 Z M 315 341 L 318 345 L 319 345 L 315 341 Z M 290 343 Q 288 346 291 345 L 290 343 Z " /><path fill="rgb(23,64,117)" stroke="rgb(23,64,117)" stroke-width="1" opacity="0.996078431372549" d="M 295.5 294 L 301 300.5 L 304 310.5 L 301 312 L 300 308 Q 297 309.3 298 305.5 L 299 303.5 L 295.5 294 Z " /><path fill="rgb(23,64,117)" stroke="rgb(23,64,117)" stroke-width="1" opacity="0.996078431372549" d="M 231.5 310 L 232 312 L 229.5 313 L 231.5 310 Z " /><path fill="rgb(23,64,117)" stroke="rgb(23,64,117)" stroke-width="1" opacity="0.996078431372549" d="M 127.5 312 L 128.5 314 L 127.5 312 Z " /><path fill="rgb(23,64,117)" stroke="rgb(23,64,117)" stroke-width="1" opacity="0.996078431372549" d="M 307.5 319 L 320 327.5 L 323 333.5 L 332.5 344 L 333.5 342 L 334 343.5 L 334 345.5 L 334.5 347 L 336 346.5 L 337 348.5 L 334.5 349 L 333.5 348 L 327 348 L 326 344.5 L 327 343.5 L 323.5 340 L 321 338.5 L 322 334 Q 318.7 335.3 320 330.5 L 316 329 Q 317.1 326.3 314.5 327 L 307 320.5 L 307.5 319 Z " /><path fill="rgb(23,64,117)" stroke="rgb(23,64,117)" stroke-width="1" opacity="0.996078431372549" d="M 136.5 328 L 137.5 330 L 136.5 328 Z " /><path fill="rgb(23,64,117)" stroke="rgb(23,64,117)" stroke-width="1" opacity="0.996078431372549" d="M 185.5 329 L 183.5 332 L 183 330 L 185.5 329 Z " /><path fill="rgb(23,64,117)" stroke="rgb(23,64,117)" stroke-width="1" opacity="0.996078431372549" d="M 139.5 332 L 140.5 334 L 139.5 332 Z " /><path fill="rgb(23,64,117)" stroke="rgb(23,64,117)" stroke-width="1" opacity="0.996078431372549" d="M 142.5 336 L 143.5 338 L 142.5 336 Z " /><path fill="rgb(23,64,117)" stroke="rgb(23,64,117)" stroke-width="1" opacity="0.996078431372549" d="M 296.5 347 L 300 347.5 L 296.5 348 L 296.5 347 Z " /><path fill="rgb(23,64,117)" stroke="rgb(23,64,117)" stroke-width="1" opacity="0.996078431372549" d="M 164.5 359 L 168.5 364 L 164.5 359 Z " /><path fill="rgb(23,64,117)" stroke="rgb(23,64,117)" stroke-width="1" opacity="0.996078431372549" d="M 335.5 360 L 334.5 362 L 335.5 360 Z " /><path fill="rgb(23,64,117)" stroke="rgb(23,64,117)" stroke-width="1" opacity="0.996078431372549" d="M 308.5 361 L 316.5 361 L 317 362.5 L 314.5 366 L 311 367 Q 312.1 369.7 309.5 369 L 292.5 378 L 260.5 384 L 261.5 382 L 271.5 380 L 280.5 380 L 282.5 378 L 286.5 378 Q 291.6 373.1 300.5 372 L 308 366.5 L 304 365.5 L 306.5 362 L 308.5 361 Z " /><path fill="rgb(23,64,117)" stroke="rgb(23,64,117)" stroke-width="1" opacity="0.996078431372549" d="M 185.5 363 L 192.5 365 L 193.5 363 L 195 365.5 L 190 366.5 L 190.5 368 L 185.5 363 Z " /><path fill="rgb(23,64,117)" stroke="rgb(23,64,117)" stroke-width="1" opacity="0.996078431372549" d="M 170.5 364 L 171.5 366 L 170.5 364 Z " /><path fill="rgb(23,64,117)" stroke="rgb(23,64,117)" stroke-width="1" opacity="0.996078431372549" d="M 174.5 367 L 175.5 369 L 174.5 367 Z " /><path fill="rgb(23,64,117)" stroke="rgb(23,64,117)" stroke-width="1" opacity="0.996078431372549" d="M 192.5 368 L 200 372.5 L 198.5 373 L 193 371 L 192.5 368 Z " /><path fill="rgb(23,64,117)" stroke="rgb(23,64,117)" stroke-width="1" opacity="0.996078431372549" d="M 211.5 377 L 214 378.5 L 213.5 380 L 211.5 377 Z " /><path fill="rgb(23,64,117)" stroke="rgb(23,64,117)" stroke-width="1" opacity="0.996078431372549" d="M 217.5 379 L 230 381.5 L 223.5 382 L 217.5 380 L 217.5 379 Z " /><path fill="rgb(23,64,117)" stroke="rgb(23,64,117)" stroke-width="1" opacity="0.996078431372549" d="M 232.5 382 Q 240.7 380.3 244 383.5 L 240.5 384 Q 238.7 381.3 232.5 383 L 232.5 382 Z " /><path fill="rgb(23,64,117)" stroke="rgb(23,64,117)" stroke-width="1" opacity="0.996078431372549" d="M 246.5 384 L 255 384.5 L 246.5 385 L 246.5 384 Z " /><path fill="rgb(23,64,117)" stroke="rgb(23,64,117)" stroke-width="1" opacity="0.996078431372549" d="M 235.5 390 L 238 390.5 L 235.5 391 L 235.5 390 Z " /><path fill="rgb(27,29,56)" stroke="rgb(27,29,56)" stroke-width="1" opacity="0.996078431372549" d="M 239.5 110 L 260.5 110 L 286.5 115 Q 314.9 123.6 335 140.5 Q 334.3 142.8 336.5 142 L 346 150.5 L 366 176.5 L 375 194.5 L 375 202.5 L 372.5 206 Q 369.5 206.9 371 202.5 Q 368 200.5 369 194.5 L 365 188.5 L 365 185.5 L 360 175.5 L 350 161 L 347 159.5 L 339.5 151 Q 337.3 151.8 338 149.5 Q 333.3 143.5 326 141 L 324.5 138 L 308.5 129 L 268.5 117 L 266.5 117 L 256.5 115 L 252.5 116 L 248.5 115 L 245.5 116 L 242.5 115 L 235.5 118 Q 228.8 117.3 225.5 120 L 223.5 119 L 212.5 122 L 207.5 125 L 203.5 125 L 178.5 136 L 166 146.5 Q 166.8 148.8 164.5 148 L 157.5 153 L 153.5 154 L 157 149.5 L 163.5 142 L 165.5 142 L 173.5 135 L 189.5 125 L 195.5 123 L 198.5 120 L 225.5 112 L 238.5 111 L 239.5 110 Z " /><path fill="rgb(27,29,56)" stroke="rgb(27,29,56)" stroke-width="1" opacity="0.996078431372549" d="M 146.5 161 L 147 162.5 Q 143.5 166 143 172.5 L 134 186.5 L 120 218 Q 116.3 219.3 118 213.5 L 121 203.5 L 123 201.5 L 129 186.5 L 146.5 161 Z " /><path fill="rgb(27,29,56)" stroke="rgb(27,29,56)" stroke-width="1" opacity="0.996078431372549" d="M 311.5 179 Q 314.9 178.1 313 183.5 L 306.5 194 Q 303.2 192.9 304 195.5 L 297.5 204 Q 294.5 204.9 296 200.5 L 299 199 L 299.5 196 Q 301.2 198.8 303 194.5 L 305 189 L 300.5 192 L 301 190.5 L 303.5 186 L 311.5 179 Z " /><path fill="rgb(27,29,56)" stroke="rgb(27,29,56)" stroke-width="1" opacity="0.996078431372549" d="M 196.5 210 L 206 222.5 L 207 226.5 L 206 226.5 L 200.5 218 L 199.5 220 L 193 212.5 L 196.5 210 Z " /><path fill="rgb(27,29,56)" stroke="rgb(27,29,56)" stroke-width="1" opacity="0.996078431372549" d="M 381.5 213 Q 383.8 212.3 383 214.5 L 385 218.5 L 385 223.5 L 387 229.5 L 388 246.5 L 388 248.5 L 386 273.5 L 381 293.5 L 374 311.5 L 366.5 322 L 365 322 L 365 324 L 363 324 L 363 326 Q 360.3 324.9 361 327.5 L 351.5 341 L 346.5 344 L 356 333.5 L 359 323.5 L 365 314.5 L 365 310.5 L 376 288.5 L 377 266.5 Q 379.2 265.3 378 260.5 L 380.5 257 L 385 255 L 386 250.5 Q 384.7 247.3 380 247.5 L 380.5 246 L 379 245.5 L 379 233.5 L 378 232.5 L 378 215.5 L 381.5 213 Z " /><path fill="rgb(27,29,56)" stroke="rgb(27,29,56)" stroke-width="1" opacity="0.996078431372549" d="M 283.5 215 L 285 215.5 L 279.5 219 L 281.5 216 L 283.5 215 Z " /><path fill="rgb(27,29,56)" stroke="rgb(27,29,56)" stroke-width="1" opacity="0.996078431372549" d="M 261.5 219 L 265.5 220 L 268 219 L 263.5 225 L 257 226.5 L 258.5 228 L 262.5 228 Q 263.3 230.8 267.5 230 L 283.5 226 L 288.5 226 L 285 230.5 L 271 250.5 L 264.5 257 L 263 256.5 L 263 262.5 L 267 269.5 L 267 274 L 271.5 273 L 277.5 281 Q 279.8 280.3 279 282.5 L 282 283.5 L 284 287.5 L 283 290.5 L 289.5 303 Q 292.1 302.3 291 305 L 293.5 305 Q 296.8 304.3 296 299.5 L 291.5 291 L 290 291.5 L 288 285.5 L 289.5 285 L 297 296.5 L 299 304.5 L 298 308 Q 300.7 306.9 300 309.5 L 304.5 318 L 307 319.5 L 308.5 322 L 316 327 Q 314.8 330 318.5 329 Q 321 330.2 320 334 Q 323.3 332.7 322 337.5 Q 319.8 338.8 322.5 340 L 327 343.5 L 326 345.5 L 326.5 347 L 318 346.5 L 320 346 L 320 342.5 L 315 336 Q 309 336.7 306 334 L 303.5 329 L 282 327 L 282 321 L 284.5 321 L 287 322 L 285 315 L 281.5 316 L 277 314.5 L 278 312.5 Q 275.8 311.2 278.5 310 L 281 311 Q 280 314 283 313 Q 281.9 310.3 284.5 311 L 283.5 309 Q 279.8 309.8 279 307.5 L 278.5 306 L 277.5 308 L 277 304.5 L 278 301 L 275 299.5 Q 275.8 297.3 273.5 298 L 267.5 293 L 263.5 295 L 261 294 Q 259.5 297.7 262.5 297 L 266 298 L 265.5 301 L 265 299 L 259 298 L 258.5 300 L 256 286 Q 258.7 287.1 258 284.5 L 255 281.5 Q 256 277 253.5 276 L 252 276.5 L 252 284.5 L 250.5 284 Q 248.3 283.3 249 285.5 L 251 293.5 L 248 291.5 L 247 288 L 244 289.5 L 241.5 293 L 241 277.5 L 243.5 274 L 246 273.5 L 246 262.5 L 253.5 269 L 260 274.5 L 258 278.5 L 261 280 L 260 271.5 L 251 262.5 L 253.5 262 L 256.5 263 Q 259.5 262.5 259 258.5 Q 256 256.5 257 250.5 L 254.5 247 Q 249.1 247.9 247 245.5 L 248 240.5 L 247 237.5 L 261.5 219 Z M 257 237 Q 256 248 263 252 L 264 252 L 262 244 L 259 239 Q 260 236 257 237 Z " /><path fill="rgb(27,29,56)" stroke="rgb(27,29,56)" stroke-width="1" opacity="0.996078431372549" d="M 116 223 L 120 223 L 120 224.5 L 121 225.5 L 121 234.5 L 120 235.5 L 119 256.5 L 120 257.5 L 122 280.5 Q 125 284.5 125 291.5 L 128 294.5 L 133 306.5 L 131 314 L 127 311.5 L 119 292.5 L 115 273.5 Q 116.5 268 114 266.5 L 114 230.5 L 116 223 Z " /><path fill="rgb(27,29,56)" stroke="rgb(27,29,56)" stroke-width="1" opacity="0.996078431372549" d="M 202.5 224 L 206 229.5 L 204 228.5 L 202.5 224 Z " /><path fill="rgb(27,29,56)" stroke="rgb(27,29,56)" stroke-width="1" opacity="0.996078431372549" d="M 208.5 228 Q 212.5 229.9 213 235.5 L 211 234.5 Q 211.5 230 208 229.5 L 208.5 228 Z " /><path fill="rgb(27,29,56)" stroke="rgb(27,29,56)" stroke-width="1" opacity="0.996078431372549" d="M 211.5 237 L 215 241.5 L 212 239.5 L 211.5 237 Z " /><path fill="rgb(27,29,56)" stroke="rgb(27,29,56)" stroke-width="1" opacity="0.996078431372549" d="M 220.5 249 L 222 251.5 L 220 250.5 L 220.5 249 Z " /><path fill="rgb(27,29,56)" stroke="rgb(27,29,56)" stroke-width="1" opacity="0.996078431372549" d="M 225.5 254 L 228 257.5 L 227 257.5 L 225.5 254 Z " /><path fill="rgb(27,29,56)" stroke="rgb(27,29,56)" stroke-width="1" opacity="0.996078431372549" d="M 225.5 263 L 225 264.5 L 224.5 266 L 224 264.5 L 225.5 263 Z " /><path fill="rgb(27,29,56)" stroke="rgb(27,29,56)" stroke-width="1" opacity="0.996078431372549" d="M 216.5 276 L 217 277.5 L 216 280 L 214 279.5 L 216.5 276 Z " /><path fill="rgb(27,29,56)" stroke="rgb(27,29,56)" stroke-width="1" opacity="0.996078431372549" d="M 285.5 284 L 287 286.5 L 286 286.5 L 285.5 284 Z " /><path fill="rgb(27,29,56)" stroke="rgb(27,29,56)" stroke-width="1" opacity="0.996078431372549" d="M 253.5 291 L 254 293.5 L 253 293.5 L 253.5 291 Z " /><path fill="rgb(27,29,56)" stroke="rgb(27,29,56)" stroke-width="1" opacity="0.996078431372549" d="M 205.5 292 Q 210 291 211 293.5 L 211.5 296 L 215.5 294 L 218 295 L 217 297.5 L 218 300 L 211.5 305 L 211 302.5 L 217 298.5 L 215.5 298 L 205.5 302 L 199 302 L 199 298.5 L 202.5 294 L 205.5 292 Z " /><path fill="rgb(27,29,56)" stroke="rgb(27,29,56)" stroke-width="1" opacity="0.996078431372549" d="M 199.5 304 Q 204.9 303.1 207 305.5 L 204.5 309 L 201.5 310 Q 203.2 308 199.5 306 L 198 305.5 L 199.5 304 Z " /><path fill="rgb(27,29,56)" stroke="rgb(27,29,56)" stroke-width="1" opacity="0.996078431372549" d="M 270.5 308 Q 273.1 307.3 272 310 L 274.5 310 L 274.5 311 L 272.5 312 L 270.5 308 Z " /><path fill="rgb(27,29,56)" stroke="rgb(27,29,56)" stroke-width="1" opacity="0.996078431372549" d="M 133.5 311 Q 137.3 309.8 136 313.5 Q 138.5 322 145 326.5 L 148 339 L 145.5 340 L 136 327.5 L 133 320.5 Q 135.8 318.7 134 312.5 L 133.5 311 Z " /><path fill="rgb(27,29,56)" stroke="rgb(27,29,56)" stroke-width="1" opacity="0.996078431372549" d="M 193.5 322 L 195 322.5 L 192 329.5 L 192.5 331 L 183.5 333 L 193.5 322 Z " /><path fill="rgb(27,29,56)" stroke="rgb(27,29,56)" stroke-width="1" opacity="0.996078431372549" d="M 338.5 337 L 340 337.5 L 340 343 L 342.5 343 L 344 344.5 L 345 351.5 L 342.5 355 Q 321.5 374 292.5 385 L 272.5 390 L 238.5 391 L 237.5 390 L 222.5 389 L 199.5 382 L 177.5 370 L 162 357.5 L 160.5 355 L 155 351.5 Q 153.7 347.3 158.5 349 L 161 350 L 161.5 348 L 162.5 349 L 174 349 L 175.5 352 L 193 363.5 L 192.5 365 L 185.5 363 L 186.5 365 L 193 369.5 Q 192.2 372.1 195.5 371 L 208.5 376 L 213.5 380 L 216.5 379 L 223.5 382 L 254.5 385 L 259.5 383 L 261.5 384 L 292.5 378 L 306.5 370 L 311 369 Q 309.9 366.3 312.5 367 L 316 364.5 L 317 361 L 311 360.5 L 325 349.5 L 325.5 348 L 333.5 348 L 336.5 349 L 336 347.5 L 334 342.5 L 338.5 337 Z " /><path fill="rgb(27,29,56)" stroke="rgb(27,29,56)" stroke-width="1" opacity="0.996078431372549" d="M 291.5 340 L 297.5 343 L 307.5 344 L 309.5 344 Q 315 343.5 317 346.5 L 292.5 347 L 289 345 L 289.5 343 L 293 345 L 291.5 340 Z " /><path fill="rgb(164,111,158)" stroke="rgb(164,111,158)" stroke-width="1" opacity="0.9176470588235294" d="M 245.5 118 L 256 118.5 L 245.5 119 L 245.5 118 Z " /><path fill="rgb(164,111,158)" stroke="rgb(164,111,158)" stroke-width="1" opacity="0.9176470588235294" d="M 197.5 120 L 196.5 122 L 197.5 120 Z " /><path fill="rgb(164,111,158)" stroke="rgb(164,111,158)" stroke-width="1" opacity="0.9176470588235294" d="M 341.5 145 L 342.5 147 L 341.5 145 Z " /><path fill="rgb(164,111,158)" stroke="rgb(164,111,158)" stroke-width="1" opacity="0.9176470588235294" d="M 344.5 148 L 346.5 151 L 344.5 148 Z " /><path fill="rgb(164,111,158)" stroke="rgb(164,111,158)" stroke-width="1" opacity="0.9176470588235294" d="M 350.5 155 L 352.5 158 L 350.5 155 Z " /><path fill="rgb(164,111,158)" stroke="rgb(164,111,158)" stroke-width="1" opacity="0.9176470588235294" d="M 355.5 161 L 358.5 165 L 355.5 161 Z " /><path fill="rgb(164,111,158)" stroke="rgb(164,111,158)" stroke-width="1" opacity="0.9176470588235294" d="M 359.5 166 L 360.5 168 L 359.5 166 Z " /><path fill="rgb(164,111,158)" stroke="rgb(164,111,158)" stroke-width="1" opacity="0.9176470588235294" d="M 361.5 169 L 362.5 171 L 361.5 169 Z " /><path fill="rgb(164,111,158)" stroke="rgb(164,111,158)" stroke-width="1" opacity="0.9176470588235294" d="M 363.5 172 L 364.5 174 L 363.5 172 Z " /><path fill="rgb(164,111,158)" stroke="rgb(164,111,158)" stroke-width="1" opacity="0.9176470588235294" d="M 187 173 L 191.5 173 L 200 176.5 L 195.5 177 L 187 175 L 187 173 Z " /><path fill="rgb(164,111,158)" stroke="rgb(164,111,158)" stroke-width="1" opacity="0.9176470588235294" d="M 365.5 175 L 366.5 177 L 365.5 175 Z " /><path fill="rgb(164,111,158)" stroke="rgb(164,111,158)" stroke-width="1" opacity="0.9176470588235294" d="M 374.5 178 Q 376.8 177.3 376 179.5 L 381.5 189 Q 384.1 188.2 383 191.5 L 387 201.5 Q 386.3 203.8 382.5 203 Q 380 202 381 197.5 L 373 183.5 L 375 179.5 L 374.5 178 Z " /><path fill="rgb(164,111,158)" stroke="rgb(164,111,158)" stroke-width="1" opacity="0.9176470588235294" d="M 329.5 179 L 328 181.5 L 327 185 Q 324.3 183.9 325 186.5 L 324 186.5 L 329.5 179 Z " /><path fill="rgb(164,111,158)" stroke="rgb(164,111,158)" stroke-width="1" opacity="0.9176470588235294" d="M 205.5 181 L 213 186.5 L 223.5 198 L 224.5 195 L 228 197.5 L 237 210.5 L 237 212.5 L 244.5 221 L 247 222.5 L 247 225 Q 249.7 223.9 249 226.5 L 251 225.5 Q 258.8 209.8 270.5 198 L 273 199.5 L 248 236 L 244 234.5 Q 244.7 231.9 242 233 L 242 230.5 L 237.5 225 L 234 223.5 L 234 219.5 L 229.5 215 Q 227.3 215.8 228 213.5 L 220 206.5 L 212 197.5 L 210 186.5 L 207.5 183 L 205.5 181 Z M 214 190 Q 214 198 220 201 L 223 201 L 218 194 L 214 190 Z M 244 230 L 243 232 L 245 233 L 244 230 Z " /><path fill="rgb(164,111,158)" stroke="rgb(164,111,158)" stroke-width="1" opacity="0.9176470588235294" d="M 376.5 199 L 378 205 L 373.5 208 L 375 205.5 Q 374.3 200.8 376.5 199 Z " /><path fill="rgb(164,111,158)" stroke="rgb(164,111,158)" stroke-width="1" opacity="0.9176470588235294" d="M 185.5 200 L 190.5 205 L 194 205 L 195 209.5 L 192.5 210 Q 189.9 210.8 191 207.5 L 188 208.5 L 189 205 L 186 203.5 L 185.5 200 Z " /><path fill="rgb(164,111,158)" stroke="rgb(164,111,158)" stroke-width="1" opacity="0.9176470588235294" d="M 387 204 Q 390 202.8 389 206.5 L 393 219.5 L 394 231.5 L 395 232.5 L 395 234.5 L 396 255.5 L 395 256.5 L 395 266.5 L 393 271.5 L 393 280.5 L 389 297 L 385.5 298 Q 382.8 296.8 385 295.5 L 384.5 290 L 382.5 295 L 381 292.5 L 385 281.5 L 387 263.5 L 388 262.5 L 388 238.5 L 387 237.5 L 387 226.5 L 383 211 L 375 210.5 Q 383.3 210.3 387 205.5 L 387 204 Z " /><path fill="rgb(164,111,158)" stroke="rgb(164,111,158)" stroke-width="1" opacity="0.9176470588235294" d="M 361.5 206 L 365.5 207 L 369 206 Q 367.8 209 371.5 208 L 371.5 209 L 367 210 Q 368.9 215.6 364 214 L 363.5 212 L 363 214 L 359 213 L 361.5 206 Z " /><path fill="rgb(164,111,158)" stroke="rgb(164,111,158)" stroke-width="1" opacity="0.9176470588235294" d="M 205.5 208 L 207.5 208 L 219 216.5 L 217.5 217 L 205.5 209 L 205.5 208 Z " /><path fill="rgb(164,111,158)" stroke="rgb(164,111,158)" stroke-width="1" opacity="0.9176470588235294" d="M 367.5 215 L 369 220.5 L 368 220.5 L 367.5 215 Z " /><path fill="rgb(164,111,158)" stroke="rgb(164,111,158)" stroke-width="1" opacity="0.9176470588235294" d="M 129 237 Q 132 235.8 131 239.5 L 130 240.5 L 130 257.5 L 132 257.5 L 134 279.5 L 138 292 Q 134.2 293.5 135 290.5 L 129 278.5 L 127 260.5 L 129 254.5 L 128 251.5 L 128 239.5 L 129 237 Z " /><path fill="rgb(164,111,158)" stroke="rgb(164,111,158)" stroke-width="1" opacity="0.9176470588235294" d="M 377.5 237 L 378 248 L 385 250.5 L 382.5 254 L 377 256.5 L 376 269.5 L 374 276.5 L 374 288.5 L 368.5 300 L 368 297.5 L 370 295.5 L 373 280.5 L 369.5 283 Q 367.3 282.3 368 284.5 L 366 287.5 L 366 291.5 Q 362.3 295.3 362 302.5 L 355.5 314 L 354 311.5 L 359 301.5 L 358 299.5 L 359 299.5 L 359.5 301 L 361 296.5 L 359 296.5 L 361 294.5 L 360 293.5 L 362 289.5 L 369.5 266 L 371 266.5 L 371 259.5 L 373 259 Q 372 262 375 261 L 375 241.5 L 377.5 237 Z M 370 269 L 367 277 L 369 277 L 370 273 L 370 269 Z " /><path fill="rgb(164,111,158)" stroke="rgb(164,111,158)" stroke-width="1" opacity="0.9176470588235294" d="M 123.5 241 L 125 248.5 L 123 253.5 Q 126 256.5 125 263.5 L 124 263.5 L 121 252.5 L 123.5 241 Z " /><path fill="rgb(164,111,158)" stroke="rgb(164,111,158)" stroke-width="1" opacity="0.9176470588235294" d="M 238 242 Q 241 240.8 240 244.5 L 238 243.5 L 238 242 Z " /><path fill="rgb(164,111,158)" stroke="rgb(164,111,158)" stroke-width="1" opacity="0.9176470588235294" d="M 231.5 248 L 240 248.5 L 231.5 249 L 231.5 248 Z " /><path fill="rgb(164,111,158)" stroke="rgb(164,111,158)" stroke-width="1" opacity="0.9176470588235294" d="M 223.5 249 L 227 251.5 L 225.5 252 L 223.5 249 Z " /><path fill="rgb(164,111,158)" stroke="rgb(164,111,158)" stroke-width="1" opacity="0.9176470588235294" d="M 227.5 253 Q 230.5 253.5 230 257.5 L 229 257.5 L 227.5 253 Z " /><path fill="rgb(164,111,158)" stroke="rgb(164,111,158)" stroke-width="1" opacity="0.9176470588235294" d="M 223.5 255 L 226 256.5 L 223 266.5 L 221 268.5 L 221 271.5 Q 223.3 272.8 220.5 274 L 219.5 271 L 215 278 Q 212 276.8 213 280.5 L 198 298.5 L 197 303 L 200 303.5 L 196 304 L 195 308.5 Q 197.5 310 196 315.5 L 192.5 322 Q 190.3 321.3 191 323.5 L 187 329 L 183 330 Q 182.3 333.4 185 334.5 L 182.5 333 L 181 334.5 L 180 339.5 L 181 341.5 L 180 341.5 L 178.5 334 L 177 334.5 L 176 329 L 173 330.5 L 173 335.5 Q 169.2 336.8 170 341 Q 166.4 343.6 160 343 Q 161.1 339.7 157 341 L 157 338.5 L 153 334.5 L 148 324.5 L 151 326.5 Q 150.3 328.8 152.5 328 L 159 335.5 L 161.5 342 L 163.5 336 L 164.5 339 L 176.5 323 Q 178.8 322.3 178 324.5 L 181 322.5 L 182 317.5 L 181.5 316 Q 183.8 316.8 183 314.5 L 189 305 Q 191.7 306.1 191 303.5 L 217 269.5 Q 218.7 262.7 224 259.5 L 224 256.5 L 223.5 255 Z " /><path fill="rgb(164,111,158)" stroke="rgb(164,111,158)" stroke-width="1" opacity="0.9176470588235294" d="M 270.5 257 L 275 260.5 L 277.5 265 L 280 266.5 Q 281.6 273.4 287.5 276 L 289 276.5 L 289 278.5 L 328.5 335 L 330 334.5 L 330 336.5 L 332.5 342 L 334 341.5 L 333 343.5 L 335 346.5 L 334 346.5 L 318.5 326 L 303 316.5 L 302 312.5 L 304 308.5 L 301 300.5 L 293 290.5 L 292 286.5 L 276 267.5 L 270.5 257 Z " /><path fill="rgb(164,111,158)" stroke="rgb(164,111,158)" stroke-width="1" opacity="0.9176470588235294" d="M 227.5 258 Q 230.3 259.3 228 260.5 L 224.5 268 L 225 266.5 L 227 261.5 L 225 261.5 L 227.5 258 Z " /><path fill="rgb(164,111,158)" stroke="rgb(164,111,158)" stroke-width="1" opacity="0.9176470588235294" d="M 230.5 264 L 231 267.5 L 230 267.5 L 230.5 264 Z " /><path fill="rgb(164,111,158)" stroke="rgb(164,111,158)" stroke-width="1" opacity="0.9176470588235294" d="M 253.5 266 L 255.5 269 L 253.5 266 Z " /><path fill="rgb(164,111,158)" stroke="rgb(164,111,158)" stroke-width="1" opacity="0.9176470588235294" d="M 271.5 268 L 277 274.5 L 274 275 L 272.5 272 L 270.5 273 L 269.5 271 Q 272.4 271.7 271.5 268 Z " /><path fill="rgb(164,111,158)" stroke="rgb(164,111,158)" stroke-width="1" opacity="0.9176470588235294" d="M 223.5 269 L 222.5 271 L 223.5 269 Z " /><path fill="rgb(164,111,158)" stroke="rgb(164,111,158)" stroke-width="1" opacity="0.9176470588235294" d="M 252.5 276 Q 254.8 277.8 254 282.5 L 252.5 285 L 252.5 276 Z " /><path fill="rgb(164,111,158)" stroke="rgb(164,111,158)" stroke-width="1" opacity="0.9176470588235294" d="M 125.5 277 L 126 280.5 L 125 280.5 L 125.5 277 Z " /><path fill="rgb(164,111,158)" stroke="rgb(164,111,158)" stroke-width="1" opacity="0.9176470588235294" d="M 127.5 285 L 128.5 287 Q 125.7 287.7 127.5 285 Z " /><path fill="rgb(164,111,158)" stroke="rgb(164,111,158)" stroke-width="1" opacity="0.9176470588235294" d="M 212.5 285 L 211.5 287 L 212.5 285 Z " /><path fill="rgb(164,111,158)" stroke="rgb(164,111,158)" stroke-width="1" opacity="0.9176470588235294" d="M 254.5 285 L 254 286.5 L 260.5 308 L 261.5 304 L 264 305 L 264 308.5 L 269.5 319 L 270.5 315 L 271 321.5 L 275 328 Q 277.7 326.9 277 329.5 L 280.5 334 L 288 337.5 L 288.5 340 L 289.5 338 L 290 341 L 286 339.5 L 283.5 336 L 282 336.5 L 286.5 344 Q 291.2 347.8 299.5 348 L 304.5 347 L 306.5 348 L 307.5 347 L 326.5 347 L 326.5 348 L 323.5 350 L 291.5 350 L 287.5 349 L 286 349.5 L 287 348.5 L 284 345.5 Q 282.5 339 277 336.5 L 275 330 L 271 327.5 L 270 324.5 L 262 315.5 L 261 312 L 258 310.5 Q 254.1 300.9 246.5 295 L 242 298.5 L 242.5 300 Q 240.3 299.3 241 301.5 L 231 315.5 L 231 319 L 227 320 L 226 322.5 L 227 324.5 L 224 326 L 221.5 332 L 220 331.5 L 218 334.5 L 217.5 337 L 216 336.5 L 210 344.5 L 211 345.5 L 206.5 350 L 204.5 350 L 203 349.5 L 205 348.5 L 198.5 348 L 197 346.5 L 206 339.5 Q 204.9 336.2 207.5 337 L 209 336.5 Q 205.3 338.3 208.5 340 L 212 337.5 L 217 329 L 219.5 330 Q 223.3 328.8 222 322.5 L 227 315.5 L 227 313.5 L 233 303 L 236 301.5 L 243.5 292 Q 244.8 294.3 246 291.5 L 245.5 290 L 244 290.5 L 245 288 Q 248 286.8 247 290.5 L 250 294.5 L 249 297.5 L 252 299.5 L 250 296.5 L 256 300.5 L 253 286.5 L 254.5 285 Z M 232 310 L 230 312 L 232 312 L 232 310 Z M 211 340 L 209 343 L 211 342 L 211 340 Z " /><path fill="rgb(164,111,158)" stroke="rgb(164,111,158)" stroke-width="1" opacity="0.9176470588235294" d="M 131.5 296 L 133 298.5 L 131 297.5 L 131.5 296 Z " /><path fill="rgb(164,111,158)" stroke="rgb(164,111,158)" stroke-width="1" opacity="0.9176470588235294" d="M 309.5 298 L 310 300 L 312.5 299 Q 315.5 300.5 312.5 302 Q 306.6 304.1 308 299.5 L 309.5 298 Z " /><path fill="rgb(164,111,158)" stroke="rgb(164,111,158)" stroke-width="1" opacity="0.9176470588235294" d="M 379.5 298 L 380 302 L 378 301.5 L 379.5 298 Z " /><path fill="rgb(164,111,158)" stroke="rgb(164,111,158)" stroke-width="1" opacity="0.9176470588235294" d="M 140 301 Q 143 300 142 303 Q 139 304 140 301 Z " /><path fill="rgb(164,111,158)" stroke="rgb(164,111,158)" stroke-width="1" opacity="0.9176470588235294" d="M 202.5 302 L 206 302.5 L 202.5 303 L 202.5 302 Z " /><path fill="rgb(164,111,158)" stroke="rgb(164,111,158)" stroke-width="1" opacity="0.9176470588235294" d="M 134.5 304 L 137 308.5 L 135 307.5 L 134.5 304 Z " /><path fill="rgb(164,111,158)" stroke="rgb(164,111,158)" stroke-width="1" opacity="0.9176470588235294" d="M 124.5 307 L 128.5 314 Q 132.3 313.3 133 315.5 L 131.5 315 Q 125.8 313.4 128 319 L 131.5 320 L 133 319.5 Q 134.9 330.1 142 335.5 L 141.5 337 L 147 340 L 146.5 342 L 144.5 341 L 143.5 342 L 137 335.5 L 135 331 Q 131.2 332.5 132 329.5 Q 128.5 328 131 326.5 L 126.5 318 L 125 318.5 L 123.5 316 L 122 316.5 L 123.5 313 L 126 314 Q 126.8 310.6 124 309.5 L 124.5 307 Z " /><path fill="rgb(164,111,158)" stroke="rgb(164,111,158)" stroke-width="1" opacity="0.9176470588235294" d="M 141.5 311 L 142.5 313 L 141.5 311 Z " /><path fill="rgb(164,111,158)" stroke="rgb(164,111,158)" stroke-width="1" opacity="0.9176470588235294" d="M 140.5 315 L 141.5 317 L 140.5 315 Z " /><path fill="rgb(164,111,158)" stroke="rgb(164,111,158)" stroke-width="1" opacity="0.9176470588235294" d="M 224.5 316 L 225 317.5 L 223 318.5 L 224.5 316 Z " /><path fill="rgb(164,111,158)" stroke="rgb(164,111,158)" stroke-width="1" opacity="0.9176470588235294" d="M 144.5 319 L 145.5 321 L 144.5 319 Z " /><path fill="rgb(164,111,158)" stroke="rgb(164,111,158)" stroke-width="1" opacity="0.9176470588235294" d="M 218.5 325 L 217.5 327 L 218.5 325 Z " /><path fill="rgb(164,111,158)" stroke="rgb(164,111,158)" stroke-width="1" opacity="0.9176470588235294" d="M 343 327 L 345 327.5 L 342 329.5 L 343 327 Z " /><path fill="rgb(164,111,158)" stroke="rgb(164,111,158)" stroke-width="1" opacity="0.9176470588235294" d="M 286.5 328 L 294.5 328 L 296 329.5 L 293.5 330 L 286.5 329 L 286.5 328 Z " /><path fill="rgb(164,111,158)" stroke="rgb(164,111,158)" stroke-width="1" opacity="0.9176470588235294" d="M 213.5 330 L 211.5 333 L 213.5 330 Z " /><path fill="rgb(164,111,158)" stroke="rgb(164,111,158)" stroke-width="1" opacity="0.9176470588235294" d="M 196.5 334 L 199 335.5 L 197.5 338 L 195.5 339 L 196 337.5 L 197 335.5 L 196.5 334 Z " /><path fill="rgb(164,111,158)" stroke="rgb(164,111,158)" stroke-width="1" opacity="0.9176470588235294" d="M 312.5 339 L 319 344.5 L 317.5 345 L 312.5 339 Z " /><path fill="rgb(164,111,158)" stroke="rgb(164,111,158)" stroke-width="1" opacity="0.9176470588235294" d="M 179.5 343 L 180 344.5 L 177.5 346 L 177.5 345 Q 180 345.7 179.5 343 Z " /><path fill="rgb(164,111,158)" stroke="rgb(164,111,158)" stroke-width="1" opacity="0.9176470588235294" d="M 173.5 348 Q 177.3 347.3 178 349.5 L 175.5 350 L 173.5 348 Z " /><path fill="rgb(164,111,158)" stroke="rgb(164,111,158)" stroke-width="1" opacity="0.9176470588235294" d="M 160 358 L 162.5 358 L 168.5 364 L 190.5 378 L 210.5 386 L 235.5 391 L 262.5 391 L 263.5 390 L 272.5 390 L 282.5 388 L 305.5 380 Q 322.8 371.8 336.5 360 L 335 362.5 L 331 372.5 L 328.5 375 L 318 381.5 L 317.5 383 L 315.5 383 L 305.5 390 L 297.5 391 L 285.5 395 L 275.5 397 L 268.5 397 L 267.5 398 L 245.5 399 L 244.5 398 L 230.5 398 L 229.5 397 L 218.5 396 L 197.5 390 L 181.5 382 L 168 371.5 L 169 368.5 L 162 363 Q 163 360 160 361 L 160 358 Z " /><path fill="rgb(164,111,158)" stroke="rgb(164,111,158)" stroke-width="1" opacity="0.9176470588235294" d="M 194.5 364 L 207.5 369 L 210.5 369 L 215.5 372 L 228.5 375 Q 234 373.5 235.5 376 L 260.5 376 L 286.5 371 L 301.5 364 L 304.5 364 L 304.5 366 L 308 366.5 L 300.5 372 Q 291.6 373.1 286.5 378 L 282.5 378 L 280.5 380 L 271.5 380 L 256.5 384 L 244.5 384 L 241.5 382 L 230.5 382 L 220.5 379 L 214.5 379 L 212.5 377 Q 203 375.5 196.5 371 L 190 366.5 L 195 365.5 L 194.5 364 Z " /><path fill="rgb(164,111,158)" stroke="rgb(164,111,158)" stroke-width="1" opacity="0.9176470588235294" d="M 338.5 364 L 341 364.5 L 335.5 369 L 337 366.5 L 338.5 364 Z " /><path fill="rgb(164,111,158)" stroke="rgb(164,111,158)" stroke-width="1" opacity="0.9176470588235294" d="M 164.5 368 L 165.5 370 L 164.5 368 Z " /></svg>